<svg width="287" height="107" viewBox="0 0 287 107" fill="none" xmlns="http://www.w3.org/2000/svg">
<path fill-rule="evenodd" clip-rule="evenodd" d="M151.05 89.1174V62.9256L120.586 51.1311L136.575 35.6112L115.62 17.0328L109.677 28.4043L109.905 17.4721L83.3486 25.9478L84.0324 40.1988L88.5426 39.0275L93.2319 89.3126L111.956 86.5633L111.924 69.7745L151.05 89.1174Z" fill="#0B0000"/>
<path fill-rule="evenodd" clip-rule="evenodd" d="M88.3473 29.6082L104.483 24.8091L105.476 41.4189L117.362 24.744L128.971 35.7901L112.738 52.888L146.149 66.1141V81.3249L107.332 61.9169L107.397 82.2522L97.3514 83.6188L93.0691 32.748L88.5427 33.9193L88.3473 29.6082Z" fill="white"/>
<path fill-rule="evenodd" clip-rule="evenodd" d="M210.692 19.5382H193.107L192.602 22.4177H174.106L165.46 75.2406L186.562 78.5594L187.718 70.9784L193.237 81.146L196.591 74.655L197.829 85.3107L221.747 89.5241L210.692 19.5382Z" fill="#0B0000"/>
<path fill-rule="evenodd" clip-rule="evenodd" d="M197.731 24.4186H206.686L215.755 83.2609L202.534 81.2436L199.017 57.9638L194.051 70.7994L186.594 54.7589H186.513L183.565 73.3535L171.175 71.1898L178.551 27.1354H191.088L194.214 44.2171L197.731 24.4186Z" fill="white"/>
<path fill-rule="evenodd" clip-rule="evenodd" d="M233.08 24.3535L259.538 30.1613L261.508 39.9223L263.641 31.1211L286.16 36.571L264.537 101.66L247.945 96.4381L247.815 89.9146L231.891 87.6858L237.264 39.9223L233.275 39.0275L233.08 24.3535Z" fill="#0B0000"/>
<path fill-rule="evenodd" clip-rule="evenodd" d="M237.785 30.4542L255.028 33.9193L260.841 61.4126L266.784 36.7662L279.907 39.6783L261.427 95.6085L252.244 92.8591L251.446 59.0537L246.822 85.1317L236.808 83.5537L241.302 36.1969L237.525 35.1882L237.785 30.4542Z" fill="white"/>
<path fill-rule="evenodd" clip-rule="evenodd" d="M230.54 80.1699C224.825 82.3173 218.752 82.0733 213.867 79.4704C209.34 77.0789 206.182 72.9305 204.961 67.806C202.518 57.5896 209.275 45.9253 220.022 41.8094C225.802 39.6294 231.924 39.8897 236.841 42.5089C241.319 44.8841 244.445 48.9349 245.634 53.913C248.125 64.2758 241.368 76.054 230.54 80.1699Z" fill="#0B0000"/>
<path fill-rule="evenodd" clip-rule="evenodd" d="M241.449 54.8565C239.495 46.6573 230.735 42.5414 221.747 45.9252C213.036 49.2602 207.321 58.6795 209.291 66.8787C211.31 75.3382 219.989 79.4378 228.977 76.054C237.753 72.7353 243.468 63.2509 241.449 54.8565Z" fill="white"/>
<path fill-rule="evenodd" clip-rule="evenodd" d="M234.92 56.3044C234.741 60.827 230.8 64.2433 225.981 64.0481C221.243 63.8528 217.595 60.1437 217.775 55.6211C217.954 51.3751 221.878 47.9588 226.697 48.154C231.452 48.3492 235.099 52.0584 234.92 56.3044Z" fill="#0B0000"/>
<path fill-rule="evenodd" clip-rule="evenodd" d="M228.797 48.3492C225.915 48.2354 223.506 50.2201 223.392 52.7742C223.294 55.3283 225.541 57.5083 228.423 57.6221C231.305 57.736 233.715 55.7513 233.829 53.1972C233.926 50.6431 231.679 48.4631 228.797 48.3492Z" fill="white"/>
<path fill-rule="evenodd" clip-rule="evenodd" d="M84.6675 85.8638C78.8222 88.3365 72.4884 88.3365 67.2944 85.8475C62.4911 83.5374 59.023 79.3727 57.5413 74.0856C54.578 63.56 61.1071 51.1473 72.1139 46.4133C78.0243 43.9242 84.407 43.9242 89.6336 46.4458C94.388 48.7234 97.8072 52.8067 99.2563 57.9312C102.285 68.6032 95.7394 81.146 84.6675 85.8638Z" fill="#0B0000"/>
<path fill-rule="evenodd" clip-rule="evenodd" d="M95.0717 58.582C92.6619 50.0574 83.3159 46.1205 74.0351 50.0574C65.031 53.9292 59.4462 64.0481 61.856 72.5726C64.3309 81.3738 73.6117 85.2944 82.8926 81.3738C91.9618 77.5019 97.5466 67.3017 95.0717 58.582Z" fill="white"/>
<path fill-rule="evenodd" clip-rule="evenodd" d="M88.7869 60.2088C88.7869 64.7313 84.9932 68.2941 80.1737 68.2941C75.4355 68.2941 71.6418 64.7313 71.6418 60.2088C71.6418 55.9628 75.4355 52.3838 80.2551 52.3838C84.9932 52.3838 88.7869 55.9465 88.7869 60.2088Z" fill="#0B0000"/>
<path fill-rule="evenodd" clip-rule="evenodd" d="M82.3556 52.4976C79.4736 52.4976 77.129 54.58 77.129 57.1341C77.129 59.6882 79.4573 61.7705 82.3556 61.7705C85.2375 61.7705 87.5821 59.6882 87.5821 57.1341C87.5821 54.58 85.2375 52.4976 82.3556 52.4976Z" fill="white"/>
<path fill-rule="evenodd" clip-rule="evenodd" d="M52.4124 70.1487C64.9823 60.9246 70.9741 46.9827 66.4314 36.5222C64.445 31.9508 60.9606 28.1766 56.6946 25.8014C53.6987 23.8167 50.1329 22.5641 46.388 22.1411C37.2048 20.5305 26.1818 22.1899 15.3378 26.7938C11.3487 28.4857 7.62007 30.4379 4.26594 32.569L0 35.2533L2.55631 39.5807L10.502 53.002C10.502 53.002 12.9444 57.1341 12.9606 57.1178L17.2754 55.0192L17.8779 54.7264L37.6282 98.7971L39.5332 103.027L43.962 101.611L54.6594 98.1951L59.3486 96.6984L58.1112 91.9481L52.4124 70.1487Z" fill="black"/>
<path fill-rule="evenodd" clip-rule="evenodd" d="M61.6608 38.5883C60.0814 34.9605 57.3623 32.1135 53.8128 30.1125C51.2402 28.4044 48.2605 27.5584 45.4763 27.2493C37.5631 25.8665 27.7124 27.168 17.3406 31.5604C13.6446 33.1221 10.1927 34.9117 7.0177 36.9289L14.9634 50.3502C16.9987 49.3579 19.1968 48.3004 20.3854 47.666L42.3501 96.6496L53.0475 93.2333L46.4532 67.8874C59.1045 60.1274 65.4871 47.3894 61.6608 38.5883Z" fill="white"/>
<path fill-rule="evenodd" clip-rule="evenodd" d="M174.024 51.4727L166.502 44.7051L170.198 40.7845L173.52 37.2543L170.459 33.4963C164.483 26.1431 154.925 23.1985 144.896 25.6225C130.942 28.9737 123.077 40.9797 126.187 54.1407C127.441 59.4442 130.763 63.983 135.566 66.9276C141.297 70.4578 148.51 71.4176 155.853 69.6444C163.604 67.7735 169.303 64.6337 174.301 59.4767L178.307 55.3446L174.024 51.4727Z" fill="#0B0000"/>
<path fill-rule="evenodd" clip-rule="evenodd" d="M162.464 48.2679C160.575 50.4966 158.409 52.5302 154.567 53.4575C153.281 53.7666 151.538 54.0594 150.431 53.8642L166.599 36.6686C162.04 31.0561 154.551 28.4532 146.068 30.503C135.517 33.0408 128.385 41.8257 131.023 53.0182C133.14 62.0146 143.104 67.5295 154.665 64.7476C161.666 63.0557 166.534 60.3552 170.898 55.8489L162.464 48.2679Z" fill="white"/>
<path fill-rule="evenodd" clip-rule="evenodd" d="M137.21 22.7918L157.009 0L167.967 16.3496L142.942 29.7872L137.21 22.7918Z" fill="#0B0000"/>
<path fill-rule="evenodd" clip-rule="evenodd" d="M156.163 7.25562L161.959 15.1294L145.4 23.3286L144.244 21.5879L156.163 7.25562Z" fill="white"/>
<path fill-rule="evenodd" clip-rule="evenodd" d="M143.886 48.5282C142.697 46.3645 142.925 43.5826 144.7 41.6467C146.41 39.7759 149.015 39.239 151.245 40.1012L143.886 48.5282ZM144.7 41.6467C142.942 43.5826 142.697 46.3645 143.886 48.5282L151.245 40.1012C149.015 39.239 146.393 39.7759 144.7 41.6467ZM155.332 38.8323C151.555 35.3997 145.726 35.6763 142.29 39.4505C138.855 43.2247 139.131 49.0488 142.909 52.4814C143.218 52.7742 143.56 53.0182 143.902 53.246L156 39.483C155.772 39.2553 155.56 39.0438 155.332 38.8323ZM143.886 48.5282C142.697 46.3645 142.925 43.5826 144.7 41.6467C146.41 39.7759 149.015 39.239 151.245 40.1012L143.886 48.5282Z" fill="black"/>
<path fill-rule="evenodd" clip-rule="evenodd" d="M53.3407 46.9664C52.3963 41.7769 45.6392 38.8648 38.8658 42.4927L40.5591 48.4468L43.2294 57.2317L44.4506 61.2337C49.5306 58.0288 54.6432 54.157 53.3407 46.9664ZM46.6161 54.9053C45.8834 52.4976 44.304 47.3081 44.304 47.3081C44.3203 47.3406 43.9784 46.1855 43.6202 44.9004C45.053 44.6401 46.4207 44.7702 47.5605 45.3233C48.1955 45.6324 49.2864 46.332 49.5143 47.666C50.0517 50.643 49.0259 52.7742 46.6161 54.9053Z" fill="black"/>
<path fill-rule="evenodd" clip-rule="evenodd" d="M56.2388 106.199C56.2551 106.248 56.2714 106.28 56.2877 106.329C56.2877 106.346 56.304 106.362 56.304 106.378C56.2877 106.313 56.2551 106.264 56.2388 106.199Z" fill="black"/>
<path fill-rule="evenodd" clip-rule="evenodd" d="M269.308 95.7549H274.176V96.4707H272.157V101.758H271.327V96.4707H269.308V95.7549Z" fill="black"/>
<path fill-rule="evenodd" clip-rule="evenodd" d="M274.893 101.758V95.7549H276.065L277.791 100.831L279.5 95.7549H280.656V101.758H279.891V98.2114C279.891 98.0812 279.891 97.886 279.908 97.6094C279.908 97.3329 279.908 97.0238 279.908 96.6984L278.198 101.758H277.4L275.674 96.6984V96.8774C275.674 97.0238 275.674 97.2515 275.69 97.5444C275.69 97.8372 275.707 98.0649 275.707 98.2114V101.758H274.893Z" fill="black"/>
</svg>
